<?xml version="1.0" encoding="UTF-8"?>
<svg preserveAspectRatio="xMidYMid slice" xmlns="http://www.w3.org/2000/svg" xmlns:xlink="http://www.w3.org/1999/xlink" width="240px" height="243px" viewBox="0 0 774 783">
  <!-- Generator: Sketch 50.2 (55047) - http://www.bohemiancoding.com/sketch -->
  <title>headphones</title>
  <desc>Created with Sketch.</desc>
  <defs></defs>
  <g id="headphones" stroke="none" stroke-width="1" fill="none" fill-rule="evenodd">
    <path d="M571.114056,448.914679 L571.114056,712 C603.815464,711.600936 632.153551,693.066954 646.552611,665.988598 C649.215807,667.61386 652.284033,668.691033 655.734287,668.685032 L659.377555,668.685032 C665.678019,668.691033 670.925405,665.240478 674.072637,660.984794 C677.280873,656.682101 678.968998,651.354244 679,645.646326 L679,394.639949 L669.249282,394.639949 C663.971893,394.639949 659.722581,390.306252 659.777585,385.018401 C659.807587,383.969232 659.807587,382.885058 659.807587,381.830888 C659.807587,231.144648 537.656593,109 386.990499,109 C236.331406,109 114.180412,231.144648 114.180412,381.830888 C114.180412,382.885058 114.180412,383.969232 114.204414,385.018401 C114.277419,390.306252 110.022106,394.639949 104.719716,394.639949 L95,394.639949 L95,645.646326 C95.0190014,651.354244 96.6761234,656.682101 99.9153619,660.984794 C103.062594,665.240478 108.30898,668.691033 114.604443,668.685032 L118.259713,668.685032 C121.424946,668.691033 124.306158,667.815892 126.812342,666.423668 C141.277407,693.268987 169.530488,711.600936 202.098886,712 L202.098886,448.914679 C176.435996,449.22673 153.551311,460.72758 137.870157,478.683468 L137.870157,403.888436 C145.846744,402.348189 151.802182,395.639109 152.577239,387.490799 L152.759253,386.607657 L152.735251,383.714191 C152.735251,318.997781 178.942181,260.501371 221.346303,218.079547 C263.762426,175.668724 322.277734,149.47051 386.990499,149.461509 C451.692263,149.47051 510.18257,175.668724 552.611694,218.079547 C595.021817,260.501371 621.210745,319.016784 621.210745,383.729194 L621.210745,385.778523 C621.228746,394.682956 627.542211,402.23017 636.099841,403.888436 L636.099841,479.575612 C620.435688,461.092638 597.169975,449.22973 571.114056,448.914679" id="Fill-3" fill="#616E7D"></path>
    <path d="M669.046793,394 L687.462753,394 C692.639088,394 696.891077,389.845373 696.981013,384.662838 C697,383.503942 697,382.357045 697,381.19415 C697,209.876531 558.198281,71 387.008494,71 C215.808714,71 77,209.876531 77,381.19415 C77,382.357045 77.023983,383.503942 77.047966,384.662838 C77.1329059,389.845373 81.3539171,394 86.5432428,394 L104.958204,394 C110.256452,394 114.508442,389.667389 114.435493,384.380864 C114.41151,383.331958 114.41151,382.248055 114.41151,381.19415 C114.41151,230.545675 236.467087,108.431639 387.008494,108.431639 C537.556896,108.431639 659.612473,230.545675 659.612473,381.19415 C659.612473,382.248055 659.612473,383.331958 659.582494,384.380864 C659.527533,389.667389 663.773526,394 669.046793,394" id="Fill-4" fill="#AAD4C8"></path>
    <path d="M60,596.40409 C60,613.728367 73.8297478,627.794294 91,628 L91,532 C73.8297478,532.211698 60,546.268637 60,563.606894 L60,596.40409" id="Fill-5" fill="#616E7D"></path>
    <path d="M683,628 C700.151867,627.794294 714,613.728367 714,596.40409 L714,563.606894 C714,546.268637 700.151867,532.211698 683,532 L683,628" id="Fill-6" fill="#616E7D"></path>
    <path d="M208,449 L208,713 L239.946894,713 C244.961924,713 249,708.956066 249,703.979916 L249,458.016083 C249,453.030931 244.961924,449 239.946894,449 L208,449" id="Fill-7" fill="#82BFAB"></path>
    <path d="M524,458.016083 L524,703.979916 C524,708.956066 528.039078,713 533.029058,713 L565,713 L565,449 L533.029058,449 C528.039078,449 524,453.030931 524,458.016083" id="Fill-8" fill="#82BFAB"></path>
  </g>
</svg>
